<svg width="176" height="24" viewBox="0 0 176 24" fill="none" xmlns="http://www.w3.org/2000/svg">
<g clip-path="url(#clip0_1306_353)">
<path d="M10.5941 21.1854C16.4451 21.1854 21.1882 16.4429 21.1882 10.5927C21.1882 4.74251 16.4451 0 10.5941 0C4.74315 0 0 4.74251 0 10.5927C0 16.4429 4.74315 21.1854 10.5941 21.1854Z" fill="#FC8001"/>
<path d="M10.6138 0.589417C5.72563 0.589417 1.76111 4.5534 1.76111 9.44083C1.76111 9.91729 1.80041 10.3864 1.87164 10.8408C3.01629 7.8518 6.1432 5.7028 9.82279 5.7028C12.8957 5.7028 15.5829 7.20096 17.0518 9.43592C17.0616 9.43592 17.069 9.43592 17.0788 9.43592C18.0294 9.43592 18.8302 9.73801 19.4246 10.2538C19.4492 9.98606 19.4639 9.71344 19.4639 9.43837C19.4639 4.55094 15.5019 0.589417 10.6138 0.589417Z" fill="#FDCC01"/>
<path d="M19.4272 10.2538C18.8303 9.7356 18.032 9.43597 17.0814 9.43597C17.0716 9.43597 17.0642 9.43597 17.0544 9.43597C14.4507 9.45071 11.7094 11.7127 10.9258 14.5027C10.5082 15.9886 10.7293 17.3246 11.4195 18.253C11.1543 18.2776 10.8865 18.2923 10.6139 18.2923C6.20234 18.2923 2.54487 15.0651 1.87429 10.8408C1.57216 11.6292 1.40759 12.474 1.40759 13.3557C1.40759 15.5219 2.39749 17.4744 3.98919 18.867C4.97172 19.6505 6.09426 20.2645 7.31506 20.6623C8.34917 20.9988 9.45207 21.183 10.5967 21.183C13.7727 21.183 16.6196 19.7831 18.5601 17.5702C19.2282 16.8064 19.7907 15.9493 20.2206 15.016C20.2844 14.8465 20.3409 14.6771 20.3876 14.5027C20.8862 12.7245 20.4687 11.1576 19.4272 10.2538Z" fill="#FD0024"/>
<path d="M76.7045 9.75527V18.479C76.7045 18.5674 76.6335 18.6386 76.5453 18.6386H74.5127C74.4245 18.6386 74.3535 18.5674 74.3535 18.479V10.5191C74.3535 8.00169 72.9772 6.51827 70.609 6.51827C68.3559 6.51827 66.5927 8.08765 66.5927 10.5756V18.479C66.5927 18.5674 66.5216 18.6386 66.4335 18.6386H64.4008C64.3127 18.6386 64.2416 18.5674 64.2416 18.479V10.5191C64.2416 8.00169 62.8653 6.51827 60.4972 6.51827C58.3029 6.51827 56.4661 8.0287 56.4661 10.5756V18.479C56.4661 18.5674 56.3951 18.6386 56.307 18.6386H54.289C54.2008 18.6386 54.1298 18.5674 54.1298 18.479V4.73522C54.1298 4.6468 54.2008 4.57558 54.289 4.57558H56.2923C56.3804 4.57558 56.4514 4.6468 56.4514 4.73522V5.90672C56.4514 6.05408 56.6327 6.12285 56.7282 6.01233C57.8474 4.73767 59.4612 4.28577 60.9135 4.28577C63.1127 4.28577 64.871 5.22396 65.8139 6.79334C65.8776 6.89895 66.0245 6.89895 66.0882 6.79334C67.2368 4.90959 69.2523 4.28577 71.0302 4.28577C74.3951 4.28822 76.7045 6.47406 76.7045 9.75527Z" fill="black"/>
<path d="M93.186 11.4106C93.186 15.5391 90.1884 18.533 86.3705 18.533C84.3942 18.533 82.8905 17.8306 81.8374 16.7229C81.7395 16.6198 81.5656 16.6934 81.5656 16.8359V23.8404C81.5656 23.9288 81.4946 24 81.4064 24H79.3885C79.3003 24 79.2293 23.9288 79.2293 23.8404V4.73769C79.2293 4.64927 79.3003 4.57805 79.3885 4.57805H81.4064C81.4946 4.57805 81.5656 4.64927 81.5656 4.73769V5.98533C81.5656 6.12777 81.7395 6.20146 81.8374 6.0983C82.8929 4.99311 84.3966 4.28824 86.3705 4.28824C90.186 4.28824 93.186 7.28209 93.186 11.4106ZM81.4211 11.4106C81.4211 14.2153 83.3436 16.3324 86.0987 16.3324C88.9248 16.3324 90.7762 14.1318 90.7762 11.4106C90.7762 8.69183 88.8831 6.50354 86.0987 6.50354C83.3436 6.50354 81.4211 8.61815 81.4211 11.4106Z" fill="black"/>
<path d="M119.692 7.46381C119.647 7.54486 119.547 7.56942 119.469 7.5203C118.57 6.95542 116.919 6.34634 115.22 6.34634C113.354 6.34634 112.149 7.13717 112.149 8.37499C112.149 9.4679 113.138 9.97138 114.789 10.1728L116.368 10.3742C119.265 10.7622 120.975 11.9853 120.975 14.2448C120.975 16.8481 118.651 18.533 114.936 18.533C113.295 18.533 111.091 18.1474 109.318 16.8678C109.249 16.8187 109.232 16.7204 109.276 16.6492L110.194 15.1707C110.243 15.0921 110.349 15.0725 110.425 15.1265C111.429 15.8707 112.771 16.4748 114.95 16.4748C117.189 16.4748 118.565 15.7405 118.565 14.3897C118.565 13.3827 117.676 12.7491 115.825 12.5182L114.247 12.3316C111.191 11.9583 109.714 10.5755 109.714 8.50515C109.714 5.88707 111.882 4.30295 115.195 4.30295C117.282 4.30295 119.192 4.84327 120.509 5.70287C120.58 5.74953 120.603 5.84286 120.561 5.91654L119.692 7.46381Z" fill="black"/>
<path d="M131.657 7.46381C131.613 7.54486 131.513 7.56942 131.434 7.5203C130.536 6.95542 128.885 6.34634 127.185 6.34634C125.319 6.34634 124.114 7.13717 124.114 8.37499C124.114 9.4679 125.104 9.97138 126.754 10.1728L128.334 10.3742C131.231 10.7622 132.941 11.9853 132.941 14.2448C132.941 16.8481 130.616 18.533 126.901 18.533C125.261 18.533 123.056 18.1474 121.283 16.8678C121.215 16.8187 121.198 16.7204 121.242 16.6492L122.16 15.1707C122.209 15.0921 122.314 15.0725 122.39 15.1265C123.394 15.8707 124.736 16.4748 126.916 16.4748C129.154 16.4748 130.531 15.7405 130.531 14.3897C130.531 13.3827 129.642 12.7491 127.79 12.5182L126.213 12.3316C123.157 11.9583 121.68 10.5755 121.68 8.50515C121.68 5.88707 123.847 4.30295 127.161 4.30295C129.247 4.30295 131.158 4.84327 132.475 5.70287C132.546 5.74953 132.568 5.84286 132.527 5.91654L131.657 7.46381Z" fill="black"/>
<path d="M35.3363 14.93C35.2751 14.8686 35.1771 14.8686 35.1159 14.93C33.1029 16.8383 30.2547 16.7842 28.3641 14.8882C26.4269 12.9455 26.4171 10.0254 28.4351 7.99916C30.4163 6.01226 33.2449 5.99507 35.182 7.82969C35.2457 7.88864 35.3412 7.89109 35.4024 7.82969L36.7396 6.48872C36.8033 6.42487 36.8033 6.31926 36.7371 6.25541C33.818 3.44085 29.5641 3.47032 26.7404 6.29961C23.88 9.16821 23.8898 13.5129 26.8114 16.4429C29.6914 19.3311 33.9502 19.3925 36.8131 16.6442C36.8792 16.5828 36.8792 16.4748 36.8155 16.4109L35.3363 14.93Z" fill="black"/>
<path d="M40.315 11.4056C40.4008 11.4056 40.4693 11.3369 40.4718 11.2485C40.5501 8.47072 42.6024 6.49119 45.2742 6.49119C48.0146 6.49119 50.0815 8.54931 50.0815 11.413C50.0815 14.2227 48.093 16.2415 45.4309 16.3176C45.3452 16.3201 45.2742 16.3889 45.2742 16.4748V18.3708C45.2742 18.4617 45.3501 18.5354 45.4383 18.5329C49.4864 18.4519 52.4766 15.4163 52.4766 11.413C52.4766 7.3557 49.4056 4.29062 45.2742 4.29062C41.2016 4.29062 38.1453 7.26728 38.0595 11.2386C38.0571 11.3295 38.133 11.4056 38.2212 11.4056H40.315Z" fill="black"/>
<path d="M107.713 4.57557H105.695C105.607 4.57557 105.536 4.64679 105.536 4.73521V5.95584C104.295 4.84082 102.642 4.18015 100.775 4.18015C96.7298 4.18015 93.6734 7.25997 93.6734 11.4032C93.6734 15.4876 96.6416 18.5527 100.604 18.6386C100.695 18.6411 100.771 18.5649 100.771 18.4765V16.3791C100.771 16.2931 100.702 16.2244 100.614 16.2219C97.844 16.1433 95.8702 14.0852 95.8702 11.4032C95.8702 8.65498 97.9224 6.58212 100.778 6.58212C103.212 6.58212 105.539 8.28904 105.539 10.2366V18.4765C105.539 18.5649 105.61 18.6362 105.698 18.6362H107.716C107.804 18.6362 107.875 18.5649 107.875 18.4765V4.73275C107.875 4.64925 107.802 4.57557 107.713 4.57557Z" fill="black"/>
<path d="M46.7901 12.8793L47.4734 10.3251C47.6203 9.77741 47.1207 9.27639 46.5746 9.42375L44.0277 10.109C43.4815 10.2563 43.2979 10.9391 43.6995 11.3419L45.5632 13.2109C45.9623 13.6088 46.6456 13.427 46.7901 12.8793Z" fill="#FDCC01"/>
<path d="M138.123 16.9463C138.123 17.8958 137.355 18.6655 136.408 18.6655C135.461 18.6655 134.694 17.8958 134.694 16.9463C134.694 15.9968 135.461 15.2271 136.408 15.2271C137.355 15.2271 138.123 15.9968 138.123 16.9463Z" fill="black"/>
<path d="M174.703 13.5768C173.045 13.5768 172.283 12.7246 172.283 11.0619V0.8302H167.204V8.42904C166.051 5.94357 163.535 4.21947 160.619 4.21947C157.702 4.21947 155.189 5.94112 154.033 8.42904V4.37419H149.018V11.5236C149.018 12.813 148.342 13.6873 147.208 13.6873C146.074 13.6873 145.398 12.813 145.398 11.5236V4.37419H140.319V11.5899C140.319 16.0058 143.023 18.7835 147.208 18.7835C150.568 18.7835 152.968 16.912 153.754 13.8838C154.736 16.7352 157.437 18.7835 160.616 18.7835C163.753 18.7835 166.425 16.7892 167.439 13.9968C168.188 17.2387 170.635 18.673 173.914 18.673H175.2V13.5792H174.703V13.5768ZM160.619 13.6873C159.419 13.6873 158.439 12.7025 158.439 11.5015C158.439 10.298 159.421 9.31565 160.619 9.31565C161.819 9.31565 162.798 10.3005 162.798 11.5015C162.798 12.7025 161.816 13.6873 160.619 13.6873Z" fill="black"/>
</g>
<defs>
<clipPath id="clip0_1306_353">
<rect width="176" height="24" fill="white"/>
</clipPath>
</defs>
</svg>
